<svg xmlns="http://www.w3.org/2000/svg" width="149.472" height="23" viewBox="0 0 149.472 23">
  <metadata><?xpacket begin="﻿" id="W5M0MpCehiHzreSzNTczkc9d"?>
<x:xmpmeta xmlns:x="adobe:ns:meta/" x:xmptk="Adobe XMP Core 5.6-c142 79.160924, 2017/07/13-01:06:39        ">
   <rdf:RDF xmlns:rdf="http://www.w3.org/1999/02/22-rdf-syntax-ns#">
      <rdf:Description rdf:about=""/>
   </rdf:RDF>
</x:xmpmeta>
                                                                                                    
                                                                                                    
                                                                                                    
                                                                                                    
                                                                                                    
                                                                                                    
                                                                                                    
                                                                                                    
                                                                                                    
                                                                                                    
                                                                                                    
                                                                                                    
                                                                                                    
                                                                                                    
                                                                                                    
                                                                                                    
                                                                                                    
                                                                                                    
                                                                                                    
                                                                                                    
                           
<?xpacket end="w"?></metadata>
<defs>
    <style>
      .cls-1 {
        fill-rule: evenodd;
      }
    </style>
  </defs>
  <path id="FOODIE_STORIES" data-name="FOODIE STORIES" class="cls-1" d="M892.609,207.332q0.06-.581.124-1.162-1.893.678-3.773,1.393-1.289-3.031-1.4-3.463c0.246-.109.82-0.326,1.726-0.642a11.792,11.792,0,0,1,2.5-.6l0.116-.039c0-.394,0-0.788,0-1.182q-3.379,1.147-6.722,2.41l0.042,0.094a11.467,11.467,0,0,1,1.465,2.652l1.65,3.779a11.78,11.78,0,0,1,.95,2.842l0.042,0.094q1.054-.39,2.114-0.77c-0.013-.031-0.026-0.063-0.04-0.095a12.238,12.238,0,0,1-1.43-2.683l-0.665-1.563q0.568-.235,1.417-0.534a13.513,13.513,0,0,1,1.766-.487Zm13.866-.775a5.163,5.163,0,0,0,.4-4.244,4.857,4.857,0,0,0-3.626-3.545,5.9,5.9,0,0,0-3.1.124,5.755,5.755,0,0,0-3.674,2.749,4.761,4.761,0,0,0-.253,4.122,5.545,5.545,0,0,0,2.7,3.091A5.975,5.975,0,0,0,906.475,206.557Zm-1.317.413a4.432,4.432,0,0,1-1.962,1.059,3.934,3.934,0,0,1-2.37.008,3.768,3.768,0,0,1-1.768-1.161,6.4,6.4,0,0,1-1.084-1.928,6.84,6.84,0,0,1-.446-2.126,3.569,3.569,0,0,1,.275-1.645,5.017,5.017,0,0,1,2.163-1.118,3.62,3.62,0,0,1,3.413.423,5.379,5.379,0,0,1,1.743,2.706,4.84,4.84,0,0,1,.036,3.782h0Zm14.887-3.582a5.2,5.2,0,0,0,.725-4.206,4.783,4.783,0,0,0-3.325-3.78,6.5,6.5,0,0,0-6.953,2.4,4.794,4.794,0,0,0-.571,4.092,5.464,5.464,0,0,0,2.437,3.266,5.394,5.394,0,0,0,4.12.577A5.512,5.512,0,0,0,920.045,203.388Zm-1.34.322a4.465,4.465,0,0,1-2.031.922,3.9,3.9,0,0,1-2.353-.153,3.707,3.707,0,0,1-1.665-1.279,6.363,6.363,0,0,1-.926-2,6.868,6.868,0,0,1-.277-2.149,3.614,3.614,0,0,1,.4-1.621,5.043,5.043,0,0,1,2.235-.967,3.578,3.578,0,0,1,3.356.654,5.323,5.323,0,0,1,1.52,2.817,4.863,4.863,0,0,1-.26,3.773h0ZM923.8,193.7c0.006,0.033.013,0.067,0.02,0.1a11.2,11.2,0,0,1,.859,2.867q0.4,2,.8,4a11.7,11.7,0,0,1,.32,2.958c0.007,0.034.014,0.067,0.02,0.1l0.965-.161q1.556-.25,3.114-0.476c2.619-.39,4.2-1.5,4.777-3.4a6.405,6.405,0,0,0,.163-2.773,4.345,4.345,0,0,0-2.017-3.394,7.37,7.37,0,0,0-4.762-.526c-0.035.006-1.121,0.176-3.25,0.556C924.469,193.607,924.133,193.653,923.8,193.7Zm3.833,8.649q-0.149-.422-0.775-3.728c-0.055-.287-0.109-0.575-0.164-0.862q-0.567-2.991-.636-3.543c1.1-.185,1.67-0.275,1.705-0.28a5.291,5.291,0,0,1,3.664.419c0.794,0.522,1.311,1.6,1.562,3.236a4.842,4.842,0,0,1-.548,3.678,6.82,6.82,0,0,1-2.783.855q-1.021.153-2.025,0.225h0Zm12.962-9.284a7.892,7.892,0,0,1,.027-1.455c0-.034-0.008-0.067-0.011-0.1q-1.161.105-2.321,0.223l0.012,0.1a11.361,11.361,0,0,1,.612,2.918q0.234,1.959.466,3.917a12.876,12.876,0,0,1,.121,3.116l0.012,0.1q1.1-.111,2.193-0.211c0-.034-0.008-0.068-0.011-0.1a8.1,8.1,0,0,1-.323-1.356q-0.187-1.032-.247-1.569-0.213-1.96-.427-3.921C940.654,194.361,940.62,193.806,940.592,193.066Zm11.865-1.259q0.2-.555.391-1.11-3.538.146-7.069,0.4c0,0.034.006,0.068,0.008,0.1a11.019,11.019,0,0,1,.51,2.936l0.318,4.076a11.757,11.757,0,0,1-.034,2.973c0,0.034,0,.068.008,0.1q3.46-.232,6.928-0.349,0.121-.675.247-1.351l-0.117,0a11.983,11.983,0,0,1-3.789.625q-0.88.045-1.266,0.025-0.1-.433-0.336-3.973,0.915-.1,1.6-0.129a17.6,17.6,0,0,1,1.842.033l0.119-.005q0.223-.513.448-1.026-2.033.115-4.062,0.268-0.207-3.03-.209-3.585c0.266-.035.883-0.08,1.853-0.128a11.531,11.531,0,0,1,2.493.112Zm12.567-.39a4.513,4.513,0,0,1,1.757.43,6.041,6.041,0,0,1,1.6,1.039,6.131,6.131,0,0,0,.7-1.609,8.931,8.931,0,0,0-3.36-.779,5.143,5.143,0,0,0-2.762.608,2.164,2.164,0,0,0-1.108,1.989,2.314,2.314,0,0,0,.427,1.4,2.992,2.992,0,0,0,1.066.932q0.635,0.33,1.384.658l1.376,0.6a2.93,2.93,0,0,1,1.041.738,1.8,1.8,0,0,1-.079,2.32,3.12,3.12,0,0,1-1.492.293,4.29,4.29,0,0,1-1.805-.489,5.59,5.59,0,0,1-1.606-1.172,2.9,2.9,0,0,0-.615,1.674,6.4,6.4,0,0,0,3.351.979,5.189,5.189,0,0,0,2.975-.674,2.592,2.592,0,0,0,1.188-2.189,2.785,2.785,0,0,0-.256-1.376,2.613,2.613,0,0,0-.807-0.98,6.658,6.658,0,0,0-1.136-.665q-0.624-.29-1.251-0.53t-1.156-.492a2.565,2.565,0,0,1-.848-0.62,1.331,1.331,0,0,1-.314-0.931,1.352,1.352,0,0,1,.381-0.951A3.189,3.189,0,0,1,965.024,191.417Zm6.752,0.743a17.394,17.394,0,0,1,3.319-.24,23.373,23.373,0,0,1-.106,2.407l-0.321,4a14.23,14.23,0,0,1-.444,2.853c0,0.034-.006.068-0.008,0.1q1.082,0.072,2.163.156l0.009-.1a12.765,12.765,0,0,1,.016-2.942l0.36-4a22.548,22.548,0,0,1,.3-2.335,16.758,16.758,0,0,1,3.239.712l0.121,0.011a10.815,10.815,0,0,1,.263-1.281c-2.342-.187-3.85-0.279-4.52-0.329s-2.175-.171-4.519-0.322a9.582,9.582,0,0,1,.009,1.3Zm18.824,9.465a5.524,5.524,0,0,0,2.327-3.68,4.458,4.458,0,0,0-1.607-4.63,5.63,5.63,0,0,0-2.837-1.109,6.125,6.125,0,0,0-4.558,1.04,5.067,5.067,0,0,0-2.133,3.625,4.962,4.962,0,0,0,4.57,5.762A5.85,5.85,0,0,0,990.6,201.625Zm-1.373-.145a4.63,4.63,0,0,1-2.249.185,3.717,3.717,0,0,1-2.123-.924A3.4,3.4,0,0,1,983.814,199a6.141,6.141,0,0,1-.075-2.169,6.955,6.955,0,0,1,.587-2.1,3.869,3.869,0,0,1,1.007-1.379,5.219,5.219,0,0,1,2.452-.159,3.361,3.361,0,0,1,2.86,1.725,6.29,6.29,0,0,1-1.418,6.562h0Zm8.745-7.628-0.021.1a7.176,7.176,0,0,1-.2,2.267q-0.579,2.781-1.156,5.562a5.672,5.672,0,0,1-.737,2l-0.021.1q1.119,0.2,2.236.4c0.007-.033.015-0.067,0.022-0.1a7.39,7.39,0,0,1,.236-2.249q0.245-1.124.49-2.247L999.3,199.8q1,1.877,1.942,3.761c0.31,0.641.54,1.13,0.67,1.466,0.89,0.183,1.78.371,2.66,0.566a0.777,0.777,0,0,0,.04-0.142,2.741,2.741,0,0,1-.86-0.787,19.484,19.484,0,0,1-1.33-2.135c-0.47-.818-0.94-1.635-1.42-2.45a4.624,4.624,0,0,0,2.69-.465,2.734,2.734,0,0,0,1.44-1.8c0.41-1.636-.75-2.762-3.52-3.295-0.85-.155-1.713-0.305-2.573-0.449h0Q998.5,193.96,997.972,193.852Zm5.048,2.136a1.791,1.791,0,0,1,.19,1.6,2.328,2.328,0,0,1-.97,1.508,3.041,3.041,0,0,1-2.12.161c-0.372-.07-0.753-0.161-1.149-0.274q0.8-3.663.919-3.969a11.951,11.951,0,0,1,1.34.192A3.161,3.161,0,0,1,1003.02,195.988Zm8.94,2.384a8.258,8.258,0,0,1,.59-1.352l0.03-.1q-1.14-.279-2.28-0.547c-0.01.033-.01,0.066-0.02,0.1a11.4,11.4,0,0,1-.55,2.93c-0.35,1.272-.71,2.544-1.07,3.816a12.994,12.994,0,0,1-1.08,2.954l-0.03.1c0.72,0.168,1.43.34,2.15,0.517l0.03-.1a7.9,7.9,0,0,1,.22-1.374c0.14-.684.27-1.2,0.37-1.548,0.36-1.269.73-2.538,1.1-3.808Q1011.57,199.425,1011.96,198.372Zm11.7,2.7c0.26-.3.53-0.607,0.8-0.909q-3.42-1.028-6.85-1.94l-0.03.1a10.649,10.649,0,0,1-.65,2.914l-1.26,3.916a12.079,12.079,0,0,1-1.18,2.77l-0.03.1q3.36,0.914,6.69,1.945l0.75-1.183-0.11-.035a12.28,12.28,0,0,1-3.83-.658c-0.57-.165-0.97-0.294-1.21-0.392,0.06-.291.46-1.566,1.21-3.826,0.61,0.139,1.13.274,1.56,0.4a17.035,17.035,0,0,1,1.73.636l0.12,0.034c0.27-.271.54-0.542,0.82-0.812-1.32-.374-2.63-0.735-3.95-1.082,0.65-1.934,1.04-3.075,1.18-3.422,0.27,0.055.87,0.215,1.8,0.488a11.347,11.347,0,0,1,2.32.923Zm7.04,1.978a4.407,4.407,0,0,1,1.53.948,5.688,5.688,0,0,1,1.17,1.474,6.457,6.457,0,0,0,1.25-1.3,8.716,8.716,0,0,0-2.95-1.771,5.362,5.362,0,0,0-2.87-.275,2.338,2.338,0,0,0-1.77,1.54,2.3,2.3,0,0,0-.09,1.457,2.747,2.747,0,0,0,.69,1.206c0.32,0.338.69,0.687,1.09,1.048s0.77,0.691,1.1.991a2.681,2.681,0,0,1,.74,1.018,1.612,1.612,0,0,1-.05,1.234,1.738,1.738,0,0,1-.86.933,3.208,3.208,0,0,1-1.53-.183,4.147,4.147,0,0,1-1.56-1.016,5.294,5.294,0,0,1-1.12-1.6,3.11,3.11,0,0,0-1.19,1.393,6.181,6.181,0,0,0,2.87,1.954,5.393,5.393,0,0,0,3.09.279,2.8,2.8,0,0,0,1.93-1.7,2.764,2.764,0,0,0,.24-1.379,2.485,2.485,0,0,0-.42-1.174,6.34,6.34,0,0,0-.86-0.978c-0.33-.31-0.66-0.606-1.01-0.886s-0.65-.554-0.93-0.82a2.267,2.267,0,0,1-.59-0.847,1.274,1.274,0,0,1,.03-0.975,1.437,1.437,0,0,1,.7-0.781A3.294,3.294,0,0,1,1030.7,203.054Z" transform="translate(-885.188 -190.5)"/>
</svg>
