<svg xmlns="http://www.w3.org/2000/svg" width="199.28" height="30.656" viewBox="0 0 199.28 30.656">
  <metadata><?xpacket begin="﻿" id="W5M0MpCehiHzreSzNTczkc9d"?>
<x:xmpmeta xmlns:x="adobe:ns:meta/" x:xmptk="Adobe XMP Core 5.6-c142 79.160924, 2017/07/13-01:06:39        ">
   <rdf:RDF xmlns:rdf="http://www.w3.org/1999/02/22-rdf-syntax-ns#">
      <rdf:Description rdf:about=""/>
   </rdf:RDF>
</x:xmpmeta>
                                                                                                    
                                                                                                    
                                                                                                    
                                                                                                    
                                                                                                    
                                                                                                    
                                                                                                    
                                                                                                    
                                                                                                    
                                                                                                    
                                                                                                    
                                                                                                    
                                                                                                    
                                                                                                    
                                                                                                    
                                                                                                    
                                                                                                    
                                                                                                    
                                                                                                    
                                                                                                    
                           
<?xpacket end="w"?></metadata>
<defs>
    <style>
      .cls-1 {
        fill-rule: evenodd;
      }
    </style>
  </defs>
  <path id="FOODIE_STORIES" data-name="FOODIE STORIES" class="cls-1" d="M1190.14,276.371c0.06-.516.11-1.033,0.17-1.549q-2.52.9-5.03,1.856-1.725-4.039-1.86-4.616c0.33-.145,1.09-0.434,2.3-0.856a15.745,15.745,0,0,1,3.33-.806l0.15-.052c0-.525,0-1.05.01-1.576q-4.515,1.53-8.96,3.212a0.644,0.644,0,0,0,.05.127,15.321,15.321,0,0,1,1.95,3.534q1.11,2.519,2.2,5.037a15.13,15.13,0,0,1,1.27,3.788l0.06,0.127q1.41-.522,2.82-1.027l-0.06-.127a16.392,16.392,0,0,1-1.9-3.576c-0.3-.694-0.59-1.389-0.89-2.084,0.51-.209,1.13-0.447,1.89-0.712a18.277,18.277,0,0,1,2.35-.649Zm18.49-1.034a6.846,6.846,0,0,0,.53-5.657,6.462,6.462,0,0,0-4.83-4.726,7.891,7.891,0,0,0-4.14.165,7.652,7.652,0,0,0-4.9,3.666,6.346,6.346,0,0,0-.34,5.494,7.414,7.414,0,0,0,3.6,4.12A7.957,7.957,0,0,0,1208.63,275.337Zm-1.75.551a5.938,5.938,0,0,1-2.62,1.411,5.248,5.248,0,0,1-3.16.012,5.1,5.1,0,0,1-2.36-1.548,8.739,8.739,0,0,1-1.44-2.571,9.09,9.09,0,0,1-.6-2.833,4.907,4.907,0,0,1,.37-2.193,6.747,6.747,0,0,1,2.88-1.49,4.848,4.848,0,0,1,4.56.564,7.187,7.187,0,0,1,2.32,3.607c0.69,2.165.7,3.844,0.05,5.041h0Zm19.85-4.776a6.938,6.938,0,0,0,.96-5.605,6.375,6.375,0,0,0-4.43-5.04,7.819,7.819,0,0,0-4.12-.117,7.731,7.731,0,0,0-5.15,3.32,6.342,6.342,0,0,0-.76,5.454,7.13,7.13,0,0,0,8.74,5.123A7.37,7.37,0,0,0,1226.73,271.112Zm-1.79.43a5.991,5.991,0,0,1-2.71,1.229,5.218,5.218,0,0,1-3.14-.2,5,5,0,0,1-2.22-1.7,8.674,8.674,0,0,1-1.23-2.662,9.024,9.024,0,0,1-.37-2.865,4.729,4.729,0,0,1,.54-2.161,6.679,6.679,0,0,1,2.97-1.289,4.784,4.784,0,0,1,4.48.872,7.158,7.158,0,0,1,2.03,3.754c0.52,2.206.39,3.881-.35,5.03h0Zm6.79-13.342,0.03,0.134a15.19,15.19,0,0,1,1.14,3.821c0.36,1.78.71,3.559,1.07,5.339a15.143,15.143,0,0,1,.42,3.943l0.03,0.134q0.645-.11,1.29-0.216c1.38-.222,2.76-0.433,4.15-0.633,3.49-.521,5.6-2,6.37-4.528a8.661,8.661,0,0,0,.22-3.7,5.816,5.816,0,0,0-2.69-4.523c-1.49-.863-3.62-1.11-6.35-0.7-0.05.009-1.5,0.235-4.34,0.742Zm5.11,11.529c-0.13-.374-0.48-2.03-1.03-4.969-0.08-.383-0.15-0.766-0.22-1.149-0.51-2.658-.79-4.232-0.85-4.722,1.47-.248,2.23-0.367,2.27-0.375,2.2-.333,3.83-0.136,4.89.559s1.75,2.137,2.08,4.313,0.09,3.81-.73,4.9a9.1,9.1,0,0,1-3.71,1.139q-1.365.2-2.7,0.3h0Zm17.28-12.375a10.258,10.258,0,0,1,.04-1.939c-0.01-.045-0.01-0.09-0.02-0.136q-1.545.141-3.09,0.3a0.629,0.629,0,0,0,.02.136,15.267,15.267,0,0,1,.81,3.89c0.21,1.741.42,3.481,0.62,5.222a17.019,17.019,0,0,1,.16,4.152c0.01,0.045.01,0.09,0.02,0.135,0.97-.1,1.95-0.193,2.92-0.281,0-.045-0.01-0.091-0.01-0.136a11.179,11.179,0,0,1-.43-1.808q-0.255-1.374-.33-2.091l-0.57-5.226C1254.21,259.08,1254.16,258.341,1254.12,257.354Zm15.82-1.679c0.18-.493.35-0.986,0.52-1.478q-4.71.192-9.42,0.538c0,0.045.01,0.09,0.01,0.135a14.783,14.783,0,0,1,.68,3.915l0.42,5.433a15.345,15.345,0,0,1-.04,3.962,0.623,0.623,0,0,0,.01.136q4.605-.309,9.24-0.464c0.1-.6.21-1.2,0.32-1.8l-0.15,0a15.912,15.912,0,0,1-5.05.834c-0.79.04-1.35,0.052-1.69,0.033-0.09-.385-0.23-2.15-0.45-5.3q1.215-.127,2.13-0.172a23.634,23.634,0,0,1,2.45.044l0.16-.007,0.6-1.367c-1.81.1-3.61,0.221-5.42,0.357q-0.27-4.038-.27-4.779c0.35-.046,1.17-0.107,2.47-0.17a15.325,15.325,0,0,1,3.32.149l0.16-.006h0Zm16.76-.52a6,6,0,0,1,2.34.575,8.01,8.01,0,0,1,2.14,1.384,8.425,8.425,0,0,0,.93-2.145,11.911,11.911,0,0,0-4.48-1.038,6.848,6.848,0,0,0-3.68.81,2.889,2.889,0,0,0-1.48,2.652,3.082,3.082,0,0,0,.57,1.872,4,4,0,0,0,1.42,1.241c0.56,0.293,1.18.585,1.85,0.878s1.27,0.56,1.83.8a3.909,3.909,0,0,1,1.39.984,2.115,2.115,0,0,1,.51,1.574,2.157,2.157,0,0,1-.62,1.518,4.145,4.145,0,0,1-1.99.391,5.668,5.668,0,0,1-2.4-.652,7.384,7.384,0,0,1-2.14-1.563,3.865,3.865,0,0,0-.82,2.232,8.489,8.489,0,0,0,4.46,1.305,6.937,6.937,0,0,0,3.97-.9,3.439,3.439,0,0,0,1.58-2.918,3.655,3.655,0,0,0-.34-1.835,3.514,3.514,0,0,0-1.07-1.306,8.846,8.846,0,0,0-1.52-.886c-0.55-.257-1.11-0.492-1.67-0.707s-1.07-.433-1.54-0.656a3.448,3.448,0,0,1-1.13-.826,1.845,1.845,0,0,1-.42-1.241,1.825,1.825,0,0,1,.51-1.268,4.279,4.279,0,0,1,1.8-.279h0Zm9,0.991a23.234,23.234,0,0,1,4.43-.32c0.02,0.678-.03,1.747-0.14,3.209-0.15,1.778-.29,3.557-0.43,5.335a18.858,18.858,0,0,1-.6,3.8,0.628,0.628,0,0,1-.01.136c0.97,0.064,1.93.133,2.89,0.207,0-.045.01-0.09,0.01-0.135a16.93,16.93,0,0,1,.02-3.923l0.48-5.331a30.44,30.44,0,0,1,.4-3.113,22.437,22.437,0,0,1,4.32.949l0.16,0.015a15.414,15.414,0,0,1,.35-1.707c-3.12-.25-5.13-0.373-6.03-0.438s-2.9-.229-6.02-0.43a12.55,12.55,0,0,1,.01,1.735l0.16,0.008h0Zm25.1,12.617a7.337,7.337,0,0,0,3.1-4.9,5.928,5.928,0,0,0-2.14-6.172,7.515,7.515,0,0,0-3.78-1.478,8.174,8.174,0,0,0-6.08,1.386,6.843,6.843,0,0,0,3.25,12.512A7.79,7.79,0,0,0,1320.8,268.763Zm-1.83-.193a6.2,6.2,0,0,1-3,.246,4.924,4.924,0,0,1-2.83-1.232,4.538,4.538,0,0,1-1.39-2.326,8.356,8.356,0,0,1-.1-2.891,9.55,9.55,0,0,1,.78-2.794,5.221,5.221,0,0,1,1.35-1.837,6.955,6.955,0,0,1,3.27-.213c1.92,0.244,3.2,1.019,3.81,2.3a6.757,6.757,0,0,1,.41,4.173c-0.39,2.23-1.16,3.751-2.3,4.575h0Zm11.66-10.168-0.03.134a9.333,9.333,0,0,1-.27,3.022c-0.51,2.472-1.03,4.943-1.54,7.414a7.462,7.462,0,0,1-.98,2.66l-0.03.134c1,0.173,1.99.352,2.98,0.536l0.03-.134a9.634,9.634,0,0,1,.32-3c0.21-1,.43-2,0.65-3,0.21,0.052.42,0.105,0.64,0.158,0.88,1.667,1.75,3.339,2.58,5.013,0.43,0.855.72,1.507,0.9,1.955,1.19,0.244,2.37.5,3.55,0.754a1.332,1.332,0,0,0,.05-0.19,3.679,3.679,0,0,1-1.15-1.048,27.366,27.366,0,0,1-1.78-2.846q-0.93-1.637-1.89-3.265a6.226,6.226,0,0,0,3.6-.62,3.681,3.681,0,0,0,1.91-2.4c0.55-2.181-1-3.681-4.68-4.392-1.15-.207-2.29-0.406-3.44-0.6h0C1331.58,258.6,1331.1,258.5,1330.63,258.4Zm6.72,2.847a2.333,2.333,0,0,1,.26,2.132,3.055,3.055,0,0,1-1.3,2.01,4.028,4.028,0,0,1-2.82.216q-0.735-.141-1.53-0.366,1.065-4.882,1.23-5.29a15.583,15.583,0,0,1,1.78.255A4.182,4.182,0,0,1,1337.35,261.249Zm11.93,3.177a11.926,11.926,0,0,1,.78-1.8,0.676,0.676,0,0,0,.04-0.131q-1.515-.373-3.03-0.729l-0.03.131a15.294,15.294,0,0,1-.73,3.906q-0.72,2.544-1.42,5.087a17.7,17.7,0,0,1-1.45,3.937,0.664,0.664,0,0,1-.04.132c0.96,0.224,1.91.454,2.87,0.689l0.03-.132a11.508,11.508,0,0,1,.29-1.831c0.2-.912.36-1.6,0.5-2.064l1.47-5.075Q1348.77,265.83,1349.28,264.426Zm15.6,3.605c0.35-.4.71-0.808,1.06-1.212q-4.545-1.37-9.12-2.585a0.647,0.647,0,0,0-.04.13,14.754,14.754,0,0,1-.87,3.884c-0.56,1.74-1.13,3.481-1.69,5.221a15.954,15.954,0,0,1-1.57,3.691,0.655,0.655,0,0,1-.04.131q4.485,1.219,8.92,2.593c0.33-.526.67-1.052,1.01-1.577l-0.15-.046a16.42,16.42,0,0,1-5.11-.878c-0.75-.219-1.29-0.392-1.61-0.522q0.105-.582,1.62-5.1,1.2,0.279,2.07.535a22.514,22.514,0,0,1,2.31.847c0.05,0.015.1,0.03,0.16,0.046,0.36-.362.72-0.723,1.09-1.083q-2.625-.747-5.27-1.442c0.87-2.578,1.39-4.1,1.58-4.562,0.35,0.073,1.16.286,2.4,0.651a15.075,15.075,0,0,1,3.09,1.23C1364.78,268,1364.83,268.015,1364.88,268.031Zm9.39,2.637a5.808,5.808,0,0,1,2.04,1.263,7.73,7.73,0,0,1,1.56,1.966,8.7,8.7,0,0,0,1.66-1.738,11.554,11.554,0,0,0-3.93-2.361,7.128,7.128,0,0,0-3.82-.367,3.105,3.105,0,0,0-2.37,2.052,2.973,2.973,0,0,0-.12,1.942,3.727,3.727,0,0,0,.92,1.609c0.44,0.45.92,0.915,1.45,1.4s1.03,0.921,1.48,1.321a3.713,3.713,0,0,1,.98,1.358,2.1,2.1,0,0,1-.07,1.644,2.275,2.275,0,0,1-1.14,1.243,4.319,4.319,0,0,1-2.05-.242,5.513,5.513,0,0,1-2.07-1.356,7.034,7.034,0,0,1-1.5-2.133,4.106,4.106,0,0,0-1.58,1.856,8.238,8.238,0,0,0,3.82,2.605,7.223,7.223,0,0,0,4.13.372,3.715,3.715,0,0,0,2.56-2.267,3.626,3.626,0,0,0,.33-1.838,3.259,3.259,0,0,0-.57-1.566,8.447,8.447,0,0,0-1.14-1.3c-0.44-.413-0.89-0.807-1.34-1.181s-0.88-.738-1.25-1.093a3.235,3.235,0,0,1-.79-1.128,1.736,1.736,0,0,1,.05-1.3,1.87,1.87,0,0,1,.94-1.041A4.4,4.4,0,0,1,1374.27,270.668Z" transform="translate(-1180.25 -253.938)"/>
</svg>
