<svg xmlns="http://www.w3.org/2000/svg" width="289.187" height="37.563" viewBox="0 0 289.187 37.563">
  <metadata><?xpacket begin="﻿" id="W5M0MpCehiHzreSzNTczkc9d"?>
<x:xmpmeta xmlns:x="adobe:ns:meta/" x:xmptk="Adobe XMP Core 5.6-c142 79.160924, 2017/07/13-01:06:39        ">
   <rdf:RDF xmlns:rdf="http://www.w3.org/1999/02/22-rdf-syntax-ns#">
      <rdf:Description rdf:about=""/>
   </rdf:RDF>
</x:xmpmeta>
                                                                                                    
                                                                                                    
                                                                                                    
                                                                                                    
                                                                                                    
                                                                                                    
                                                                                                    
                                                                                                    
                                                                                                    
                                                                                                    
                                                                                                    
                                                                                                    
                                                                                                    
                                                                                                    
                                                                                                    
                                                                                                    
                                                                                                    
                                                                                                    
                                                                                                    
                                                                                                    
                           
<?xpacket end="w"?></metadata>
<defs>
    <style>
      .cls-1 {
        fill-rule: evenodd;
      }
    </style>
  </defs>
  <path id="Prostokąt_2_kopiuj_10" data-name="Prostokąt 2 kopiuj 10" class="cls-1" d="M1001.71,137.456v31.088a2.761,2.761,0,0,0,2.07,2.347v0.578H992.842v-0.578a2.78,2.78,0,0,0,2.066-2.322c0-7.473,0-31.787,0-31.087a2.772,2.772,0,0,0-2.067-2.347h0v-0.576h10.937v0.576h0A2.784,2.784,0,0,0,1001.71,137.456Zm-16.4,4.112H983.92l-1.095-1.925a6.574,6.574,0,0,0-5.412-3.655l-8.656.013s0,7.623,0,32.543h0a2.772,2.772,0,0,0,2.067,2.347v0.578H959.857v-0.578a2.782,2.782,0,0,0,2.066-2.322c0-27.346,0-32.568,0-32.568s-6.524-.013-8.628-0.013a6.576,6.576,0,0,0-5.412,3.655l-1.1,1.925H945.4l2.043-3.6H947.42l2.324-4.074,0.6,0a2.209,2.209,0,0,0,1.829.768h26.36a2.209,2.209,0,0,0,1.829-.768l0.6,0,2.324,4.074H983.27Zm107.227,29.9v-0.578c1.19-.415,1.8-1.29,1.27-2.337l-3.08-5.429h-18.48c-1.76,3.039-2.97,5.126-3.19,5.49a0.953,0.953,0,0,1,.07-0.139,1.241,1.241,0,1,0-.07.139c-0.48,1.02.13,1.87,1.3,2.277v0.578h-5.52v-0.578a5.823,5.823,0,0,0,2.91-2.416s7.84-13.536,13.14-22.687l-5.49-9.675a2.373,2.373,0,0,0-2.04-.976v-0.579l8.01,0h0.01a1.262,1.262,0,0,1,.93.363h0l0.03,0.041a0.162,0.162,0,0,1,.04.045l19.23,33.514a5.777,5.777,0,0,0,2.88,2.374v0.578h-11.95Zm-19.53-9.669h16.97l-8.4-14.8C1078.54,152.248,1075.39,157.685,1073.01,161.8Zm-17.66-24.249v33.917h-2.07l-30.24-29.142v26.148a2.738,2.738,0,0,0,2.06,2.416v0.578h-5.52v-0.578a2.736,2.736,0,0,0,2.07-2.416v-27.49l-4.76-4.872a2.792,2.792,0,0,0-2.04-.976v-0.579l9.26,0a1.367,1.367,0,0,1,.96.4c0.01,0.015-.17-0.163-0.16-0.147l27.2,26.668-0.03,0,1.88,7.231s0.01-9.467.01-31.156a2.75,2.75,0,0,0-2.07-2.416h0v-0.576h5.52v0.576h0A2.75,2.75,0,0,0,1055.35,137.551ZM843.812,171.469a1.369,1.369,0,0,1-.962-0.4c-0.012-.015-0.024-0.029-0.034-0.044l-7.894-7.7H824.175v5.223h0v0a2.77,2.77,0,0,0,2.067,2.347v0.578H815.308v-0.578l0.006,0v0h0.007a2.777,2.777,0,0,0,2.053-2.317c0-7.264,0-30.443,0-31.087a2.772,2.772,0,0,0-2.067-2.347h0v-0.576h10.934v0.576h0a2.784,2.784,0,0,0-2.066,2.321c0,11.463,0,19.512,0,24.546h2.041v0.007h3.238l13.922-24.54c0.533-1.046-.076-1.922-1.268-2.337h0v-0.576h5.559v0.576h0a5.81,5.81,0,0,0-2.883,2.374l-13.937,24.5h11.839l8.169,7.9a2.8,2.8,0,0,0,2.043.975v0.58Zm-19.637-2.925h0v0Zm113.07-30.993c0,23.049,0,33.917,0,33.917h-2.074l-30.238-29.142c0,8.327,0,26.15,0,26.148A2.745,2.745,0,0,0,907,170.891v0.578h-5.52v-0.578a2.746,2.746,0,0,0,2.069-2.416s0-20.047,0-27.49l-4.76-4.872a2.8,2.8,0,0,0-2.043-.976v-0.579l9.256,0a1.369,1.369,0,0,1,.962.4c0.012,0.015-.164-0.163-0.153-0.147l27.2,26.668-0.033,0,1.883,7.231s0-9.467,0-31.156a2.747,2.747,0,0,0-2.069-2.416h0v-0.576h5.52v0.576h0A2.746,2.746,0,0,0,937.245,137.551Zm-53.224,33.918v-0.578c1.191-.415,1.8-1.29,1.268-2.337l-3.081-5.429H863.725c-1.758,3.039-2.968,5.126-3.187,5.49,0.022-.046.045-0.092,0.071-0.139a0.868,0.868,0,1,0-.071.139c-0.48,1.02.128,1.87,1.3,2.277v0.578h-5.52v-0.578a5.817,5.817,0,0,0,2.911-2.416s7.844-13.536,13.146-22.687l-5.489-9.675a2.389,2.389,0,0,0-2.043-.976v-0.579l8,0h0.016a1.268,1.268,0,0,1,.927.363h0l0.032,0.041L873.857,135l19.228,33.514a5.8,5.8,0,0,0,2.882,2.374v0.578H884.021Zm-19.53-9.669h16.965l-8.4-14.8C870.014,152.248,866.871,157.685,864.491,161.8Z" transform="translate(-815.313 -133.906)"/>
</svg>
