<svg xmlns="http://www.w3.org/2000/svg" width="385.6" height="50.094" viewBox="0 0 385.6 50.094">
  <metadata><?xpacket begin="﻿" id="W5M0MpCehiHzreSzNTczkc9d"?>
<x:xmpmeta xmlns:x="adobe:ns:meta/" x:xmptk="Adobe XMP Core 5.6-c142 79.160924, 2017/07/13-01:06:39        ">
   <rdf:RDF xmlns:rdf="http://www.w3.org/1999/02/22-rdf-syntax-ns#">
      <rdf:Description rdf:about=""/>
   </rdf:RDF>
</x:xmpmeta>
                                                                                                    
                                                                                                    
                                                                                                    
                                                                                                    
                                                                                                    
                                                                                                    
                                                                                                    
                                                                                                    
                                                                                                    
                                                                                                    
                                                                                                    
                                                                                                    
                                                                                                    
                                                                                                    
                                                                                                    
                                                                                                    
                                                                                                    
                                                                                                    
                                                                                                    
                                                                                                    
                           
<?xpacket end="w"?></metadata>
<defs>
    <style>
      .cls-1 {
        fill-rule: evenodd;
      }
    </style>
  </defs>
  <path id="Prostokąt_2_kopiuj_10" data-name="Prostokąt 2 kopiuj 10" class="cls-1" d="M1335.61,183.226v41.441a3.694,3.694,0,0,0,2.76,3.128v0.77h-14.58V227.8a3.7,3.7,0,0,0,2.75-3.095c0.01-9.961.01-42.372,0.01-41.439a3.71,3.71,0,0,0-2.76-3.128v-0.769h14.58v0.769A3.724,3.724,0,0,0,1335.61,183.226Zm-21.86,5.481h-1.86l-1.46-2.565c-2.02-3.523-4.98-4.85-7.21-4.872-0.75,0-11.54.017-11.54,0.017s0,10.162-.01,43.38h0a3.693,3.693,0,0,0,2.76,3.128v0.77h-14.62V227.8a3.7,3.7,0,0,0,2.75-3.095c0.01-36.452,0-43.413,0-43.413s-8.69-.017-11.5-0.017c-2.23.022-5.19,1.349-7.22,4.872l-1.46,2.565h-1.85l2.72-4.8h-0.02l3.1-5.431,0.8,0c0.27,0.642,1.55,1.024,2.43,1.024h35.15c0.89,0,2.17-.382,2.44-1.024l0.8,0,3.1,5.431h-0.02Zm142.97,39.858V227.8c1.59-.553,2.4-1.72,1.69-3.115l-4.1-7.237h-24.65c-2.34,4.051-3.95,6.833-4.25,7.317a1.76,1.76,0,0,1,.1-0.184c-0.15.273-.18,0.325-0.1,0.184-0.64,1.36.17,2.494,1.73,3.036v0.77h-7.36V227.8a7.756,7.756,0,0,0,3.88-3.22s10.46-18.044,17.53-30.241l-7.32-12.9a3.172,3.172,0,0,0-2.72-1.3v-0.772l10.67,0h0.02a1.688,1.688,0,0,1,1.24.484h0l0.05,0.055c0.01,0.02.03,0.039,0.04,0.06l25.64,44.674a7.76,7.76,0,0,0,3.84,3.164v0.77h-15.93Zm-26.04-12.888h22.62l-11.19-19.732C1438.05,202.945,1433.86,210.192,1430.68,215.677Zm-23.55-32.323v45.211h-2.76l-40.32-38.847v34.856a3.661,3.661,0,0,0,2.76,3.22v0.77h-7.36V227.8a3.649,3.649,0,0,0,2.75-3.22V187.93l-6.34-6.494a3.747,3.747,0,0,0-2.73-1.3v-0.772l12.34,0a1.832,1.832,0,0,1,1.29.538c0.01,0.02-.22-0.217-0.21-0.2l36.27,35.549-0.05,0,2.51,9.638s0.01-12.619.01-41.53a3.662,3.662,0,0,0-2.76-3.221v-0.769h7.36v0.769A3.662,3.662,0,0,0,1407.13,183.354Zm-282.05,45.212a1.822,1.822,0,0,1-1.28-.539c-0.02-.019-0.03-0.039-0.05-0.059L1113.23,217.7H1098.9v6.963h0v0a3.693,3.693,0,0,0,2.76,3.128v0.77h-12.39a0.016,0.016,0,0,1-.01,0h-2.18V227.8s0,0,.01,0v0h0a3.689,3.689,0,0,0,2.74-3.089V183.261a3.684,3.684,0,0,0-2.75-3.128v-0.769h14.58v0.769a3.724,3.724,0,0,0-2.76,3.093v32.721h2.72v0.008h4.32l18.56-32.71c0.71-1.4-.1-2.563-1.69-3.116v-0.77h7.41v0.77a7.724,7.724,0,0,0-3.84,3.165l-18.58,32.661h15.78l10.89,10.533a3.748,3.748,0,0,0,2.73,1.3v0.772Zm-26.18-3.9h0v0Zm150.76-41.313v45.211h-2.76l-40.32-38.847v34.856a3.649,3.649,0,0,0,2.75,3.22v0.77h-7.36V227.8a3.661,3.661,0,0,0,2.76-3.22V187.93l-6.35-6.494a3.725,3.725,0,0,0-2.72-1.3v-0.772l12.34,0a1.823,1.823,0,0,1,1.28.538c0.02,0.02-.21-0.217-0.2-0.2l36.27,35.549-0.05,0,2.51,9.638s0.01-12.619.01-41.53a3.662,3.662,0,0,0-2.76-3.221v-0.769h7.36v0.769A3.662,3.662,0,0,0,1249.66,183.354Zm-70.97,45.211V227.8c1.59-.553,2.4-1.72,1.69-3.115l-4.1-7.237h-24.65c-2.34,4.051-3.95,6.833-4.25,7.317a1.76,1.76,0,0,1,.1-0.184c-0.15.273-.18,0.325-0.1,0.184-0.64,1.36.17,2.494,1.73,3.036v0.77h-7.36V227.8a7.756,7.756,0,0,0,3.88-3.22s10.46-18.044,17.53-30.241l-7.32-12.9a3.172,3.172,0,0,0-2.72-1.3v-0.772l10.67,0h0.02a1.688,1.688,0,0,1,1.24.484h0l0.05,0.055c0.01,0.02.03,0.039,0.04,0.06l25.64,44.674a7.76,7.76,0,0,0,3.84,3.164v0.77h-15.93Zm-26.04-12.888h22.63l-11.2-19.732C1160.02,202.945,1155.83,210.192,1152.65,215.677Z" transform="translate(-1087.06 -178.469)"/>
</svg>
